<?xml version="1.0" encoding="utf-8"?>
<!-- Generator: Adobe Illustrator 26.4.1, SVG Export Plug-In . SVG Version: 6.00 Build 0)  -->
<svg version="1.1" id="Layer_1" xmlns="http://www.w3.org/2000/svg" xmlns:xlink="http://www.w3.org/1999/xlink" x="0px" y="0px"
	 viewBox="0 0 292 292" style="enable-background:new 0 0 292 292;" xml:space="preserve">
<style type="text/css">
	.st0{fill:#941C2F;}
	.st1{fill:#F2F2F2;}
</style>
<circle class="st0" cx="146" cy="146" r="146"/>
<path d="M94.5,227.1c-17.1-1.7-29-45.8-27.3-81.9c1.6-33.8,16-76.1,32.8-76.5c15.7-0.3,28.7,36.2,32.8,54.6
	c7.6,34.3-3.3,60.6-5.5,65.5C124.8,194.5,110,228.6,94.5,227.1L94.5,227.1z"/>
<path d="M198.4,223.9c17.1-1.7,29-45.8,27.3-81.9c-1.6-33.8-16-76.1-32.8-76.5c-15.7-0.3-28.7,36.2-32.8,54.6
	c-7.6,34.3,3.3,60.6,5.5,65.5C168.1,191.4,182.9,225.5,198.4,223.9L198.4,223.9z"/>
<path class="st1" d="M161.7,157c16.4-4.7,32.7-9.4,49.1-14l0,0c2.6-0.8,5.9-1.4,7,0c1.9,2.5-3.8,9.9-7,14c-6.2,8.1-9.3,12.1-14,14
	c-12.5,5.1-26.7-5.9-28.1-7"/>
<path class="st1" d="M129.4,157c-16.4-4.7-32.7-9.4-49.1-14l0,0c-2.6-0.8-5.9-1.4-7,0c-1.9,2.5,3.8,9.9,7,14c6.2,8.1,9.3,12.1,14,14
	c12.5,5.1,26.7-5.9,28.1-7"/>
</svg>
