<?xml version="1.0" encoding="UTF-8"?>
<svg xmlns="http://www.w3.org/2000/svg" version="1.1" xmlns:xlink="http://www.w3.org/1999/xlink" viewBox="0 0 512 512">
  <defs>
    <style>
      .cls-1 {
        fill: #4dcc6d;
      }

      .cls-2 {
        fill: #96f773;
      }

      .cls-3 {
        fill: #19912c;
      }

      .cls-4 {
        fill: #42d714;
      }

      .cls-5 {
        fill: #38c434;
      }

      .cls-6 {
        filter: url(#drop-shadow-1);
      }

      .cls-7 {
        display: none;
      }

      .cls-8 {
        fill: #5fe756;
      }

      .cls-9 {
        fill: #fefefe;
      }

      .cls-10 {
        fill: #1ba520;
      }

      .cls-11 {
        fill: url(#linear-gradient);
      }
    </style>
    <linearGradient id="linear-gradient" x1="256" y1="0" x2="256" y2="512" gradientUnits="userSpaceOnUse">
      <stop offset="0" stop-color="#00a2ff" stop-opacity=".5"/>
      <stop offset="1" stop-color="#00a2ff"/>
    </linearGradient>
    <filter id="drop-shadow-1" filterUnits="userSpaceOnUse">
      <feOffset dx="7" dy="14"/>
      <feGaussianBlur result="blur" stdDeviation="30"/>
      <feFlood flood-color="#000" flood-opacity=".5"/>
      <feComposite in2="blur" operator="in"/>
      <feComposite in="SourceGraphic"/>
    </filter>
  </defs>
  <g>
    <g id="Background" class="cls-7">
      <rect class="cls-9" width="512" height="512"/>
    </g>
    <g>
      <path class="cls-11" d="M51.32,0h409.36c26.8,3.85,47.32,23.92,51.32,50.72v409.36c-4.23,27.59-24.82,48.07-52.52,51.92H52.52C24.26,508.23,4.25,488.27,0,460.08V51.92C3.97,23.38,22.92,4.39,51.32,0Z"/>
      <g class="cls-6">
        <path class="cls-2" d="M431.57,140.45l-86.13,18.61c-10.58,13.29-85.9,87.46-89.13,93.04-1.89.35-4.55-2.96-6.6-5.1-28.13-29.38-56.43-58.65-84.03-88.53,30.2-11.28,59.85-24.01,89.43-36.61,29.19-12.43,58.02-25.65,87.33-37.81l89.13,56.42Z"/>
        <path class="cls-3" d="M142.86,252.7c37.6.87,75.23.58,112.84.6l-.6,172.87L68.43,250.9c-.48-1.54,1.4-1.33,3.9-1.2,23.54,1.2,46.94,2.46,70.53,3Z"/>
        <path class="cls-4" d="M169.27,84.63l-3.6,73.83c27.6,29.88,55.9,59.15,84.03,88.53,2.05,2.14,4.71,5.45,6.6,5.1-.08.13.04.72,0,1.2-.2,0-.4,0-.6,0-37.61-.02-75.25.27-112.84-.6l-63.02-111.04.3-1.8c29.86-18.16,59-37.51,89.13-55.22Z"/>
        <path class="cls-5" d="M367.94,253.3c.2,0,.4,0,.6,0l-108.04,165.96c-.48,1.4-1.17,2.01.6,2.7l-5.1,5.4-.9-1.2.6-172.87c.2,0,.4,0,.6,0,37.15,0,74.52.83,111.64,0Z"/>
        <path class="cls-9" d="M431.57,140.45l1.2,1.2c-22.87,36.22-42.29,75.03-64.83,111.64-37.12.83-74.5,0-111.64,0,.04-.48-.08-1.07,0-1.2,3.23-5.57,78.56-79.74,89.13-93.04l86.13-18.61Z"/>
        <path class="cls-1" d="M444.17,249.7l-183.07,172.27c-1.77-.69-1.08-1.3-.6-2.7l108.04-165.96c25.2-.57,50.44-2.8,75.63-3.6Z"/>
        <path class="cls-8" d="M432.77,141.66l12.6,105.34-1.2,2.7c-25.19.8-50.43,3.03-75.63,3.6-.2,0-.4,0-.6,0,22.54-36.62,41.96-75.42,64.83-111.64Z"/>
        <path class="cls-10" d="M142.86,252.7c-23.59-.54-46.99-1.8-70.53-3-2.5-.13-4.38-.34-3.9,1.2l-1.8-3.3,13.21-105.94,63.02,111.04Z"/>
        <path class="cls-9" d="M255.1,121.85c-29.59,12.6-59.24,25.33-89.43,36.61l3.6-73.83,85.83,37.21Z"/>
      </g>
    </g>
  </g>
</svg>